<svg width="37" height="37" viewBox="0 0 37 37" fill="none" xmlns="http://www.w3.org/2000/svg">
<path fill-rule="evenodd" clip-rule="evenodd" d="M21.5827 3.08398C22.4004 3.08398 23.1847 3.40883 23.7629 3.98707C24.3412 4.56531 24.666 5.34957 24.666 6.16732C24.6668 7.23278 25.035 8.26539 25.7084 9.09104C26.3818 9.91669 27.3194 10.4849 28.3629 10.6998C29.1643 10.8626 29.8683 11.337 30.3199 12.0187C30.7715 12.7005 30.9338 13.5337 30.771 14.3351C30.6083 15.1365 30.1339 15.8404 29.4521 16.292C28.7704 16.7436 27.9372 16.9059 27.1358 16.7432C26.2822 16.5689 25.453 16.292 24.666 15.9184V24.6673C24.6659 26.3974 24.1806 28.0928 23.2653 29.561C22.3499 31.0291 21.0411 32.211 19.4876 32.9726C17.9341 33.7341 16.1982 34.0448 14.477 33.8691C12.7559 33.6935 11.1184 33.0387 9.75078 31.9791C8.38312 30.9194 7.34005 29.4975 6.74006 27.8748C6.14007 26.252 6.00721 24.4935 6.35657 22.799C6.70593 21.1046 7.52352 19.542 8.71644 18.289C9.90936 17.0359 11.4298 16.1425 13.1051 15.7102C13.8919 15.5205 14.7219 15.6477 15.4158 16.0646C16.1096 16.4814 16.6117 17.1544 16.8137 17.9382C17.0157 18.7221 16.9014 19.5539 16.4954 20.2542C16.0893 20.9544 15.4243 21.467 14.6436 21.6811C13.9209 21.8729 13.2923 22.3206 12.8748 22.9409C12.4572 23.5613 12.2791 24.3121 12.3735 25.0539C12.4679 25.7957 12.8284 26.478 13.388 26.974C13.9476 27.47 14.6682 27.746 15.416 27.7507C16.2338 27.7507 17.018 27.4258 17.5963 26.8476C18.1745 26.2693 18.4994 25.4851 18.4994 24.6673V6.16732C18.4994 5.34957 18.8242 4.56531 19.4024 3.98707C19.9807 3.40883 20.7649 3.08398 21.5827 3.08398Z" fill="white"/>
</svg>
