<svg width="35" height="34" viewBox="0 0 35 34" fill="none" xmlns="http://www.w3.org/2000/svg">
<g clip-path="url(#clip0_269_3)">
<path d="M1.22469 16.7958C1.22389 19.6524 1.97614 22.4417 3.40653 24.9003L1.08789 33.3004L9.75152 31.0464C12.1478 32.3407 14.8326 33.019 17.5609 33.0192H17.5681C26.5747 33.0192 33.9064 25.747 33.9102 16.8085C33.912 12.4772 32.2136 8.40436 29.1278 5.34014C26.0426 2.27619 21.9393 0.587914 17.5674 0.585938C8.55966 0.585938 1.22854 7.85772 1.22482 16.7958" fill="url(#paint0_linear_269_3)"/>
<path d="M0.642109 16.7913C0.64118 19.7507 1.42039 22.6398 2.90178 25.1864L0.5 33.8876L9.47427 31.5528C11.947 32.8905 14.731 33.5958 17.5639 33.5969H17.5712C26.901 33.5969 34.496 26.0631 34.5 16.8047C34.5016 12.3178 32.7421 8.09846 29.5461 4.92447C26.3497 1.75087 22.0997 0.00184496 17.5712 0C8.23978 0 0.645828 7.53271 0.642109 16.7913ZM5.98662 24.7478L5.65153 24.22C4.24292 21.9976 3.49944 19.4294 3.5005 16.7923C3.50342 9.09685 9.8152 2.83597 17.5765 2.83597C21.3351 2.83755 24.8674 4.29138 27.5242 6.92915C30.1808 9.56718 31.6427 13.0739 31.6417 16.8036C31.6383 24.4991 25.3264 30.7608 17.5712 30.7608H17.5656C15.0404 30.7595 12.5639 30.0866 10.4041 28.815L9.89011 28.5126L4.56459 29.898L5.98662 24.7478Z" fill="url(#paint1_linear_269_3)"/>
<path d="M13.3396 9.77208C13.0227 9.07323 12.6892 9.05913 12.3879 9.04687C12.1411 9.03633 11.859 9.03712 11.5772 9.03712C11.2951 9.03712 10.8368 9.14242 10.4493 9.56215C10.0615 9.98227 8.96875 10.9975 8.96875 13.0624C8.96875 15.1273 10.4845 17.1231 10.6958 17.4034C10.9074 17.6831 13.6221 22.0562 17.9215 23.7386C21.4947 25.1366 22.2218 24.8586 22.9973 24.7885C23.773 24.7186 25.5001 23.7735 25.8524 22.7934C26.205 21.8135 26.205 20.9735 26.0993 20.798C25.9936 20.6231 25.7115 20.5181 25.2885 20.3083C24.8655 20.0985 22.7858 19.0829 22.3981 18.9429C22.0103 18.8029 21.7283 18.7331 21.4462 19.1533C21.1641 19.5729 20.3541 20.5181 20.1072 20.798C19.8606 21.0785 19.6137 21.1134 19.1908 20.9035C18.7675 20.6929 17.4053 20.2503 15.7891 18.8206C14.5316 17.708 13.6827 16.3342 13.4359 15.914C13.1891 15.4944 13.4095 15.2669 13.6216 15.0578C13.8116 14.8697 14.0447 14.5677 14.2564 14.3227C14.4673 14.0776 14.5377 13.9027 14.6788 13.6228C14.8199 13.3426 14.7493 13.0975 14.6437 12.8876C14.5377 12.6776 13.7157 10.6019 13.3396 9.77208Z" fill="white"/>
</g>
<defs>
<linearGradient id="paint0_linear_269_3" x1="1642.21" y1="3272.03" x2="1642.21" y2="0.585938" gradientUnits="userSpaceOnUse">
<stop stop-color="#1FAF38"/>
<stop offset="1" stop-color="#60D669"/>
</linearGradient>
<linearGradient id="paint1_linear_269_3" x1="1700.5" y1="3388.76" x2="1700.5" y2="0" gradientUnits="userSpaceOnUse">
<stop stop-color="#F9F9F9"/>
<stop offset="1" stop-color="white"/>
</linearGradient>
<clipPath id="clip0_269_3">
<rect width="34" height="34" fill="white" transform="translate(0.5)"/>
</clipPath>
</defs>
</svg>
