<svg width="35" height="25" viewBox="0 0 35 25" fill="none" xmlns="http://www.w3.org/2000/svg">
<g clip-path="url(#clip0_268_45)">
<path d="M8.2273 24.8766V12.0644L4.15327 8.42934L0.5 6.41211V22.6156C0.5 23.8666 1.53926 24.8766 2.81824 24.8766H8.2273Z" fill="#4285F4"/>
<path d="M26.7734 24.8765H32.1825C33.4653 24.8765 34.5007 23.8628 34.5007 22.6155V6.41211L30.3628 8.7226L26.7734 12.0643V24.8765Z" fill="#34A853"/>
<path d="M8.22819 12.065L7.67383 7.0589L8.22819 2.26758L17.5009 9.05048L26.7736 2.26758L27.3937 6.80022L26.7736 12.065L17.5009 18.8479L8.22819 12.065Z" fill="#EA4335"/>
<path d="M26.7734 2.26732V12.0647L34.5007 6.4124V3.39776C34.5007 0.601774 31.2282 -0.992139 28.9372 0.684675L26.7734 2.26732Z" fill="#FBBC04"/>
<path d="M0.5 6.41245L4.05393 9.0122L8.2273 12.0648V2.26738L6.06352 0.684734C3.76852 -0.992209 0.5 0.601833 0.5 3.39769V6.41245Z" fill="#C5221F"/>
</g>
<defs>
<clipPath id="clip0_268_45">
<rect width="34" height="25" fill="white" transform="translate(0.5)"/>
</clipPath>
</defs>
</svg>
