<svg width="37" height="34" viewBox="0 0 37 34" fill="none" xmlns="http://www.w3.org/2000/svg">
<path d="M28.3281 0H8.67188C3.88253 0 0 3.56773 0 7.96875V26.0312C0 30.4323 3.88253 34 8.67188 34H28.3281C33.1175 34 37 30.4323 37 26.0312V7.96875C37 3.56773 33.1175 0 28.3281 0Z" fill="url(#paint0_radial_268_35)"/>
<path d="M28.3281 0H8.67188C3.88253 0 0 3.56773 0 7.96875V26.0312C0 30.4323 3.88253 34 8.67188 34H28.3281C33.1175 34 37 30.4323 37 26.0312V7.96875C37 3.56773 33.1175 0 28.3281 0Z" fill="url(#paint1_radial_268_35)"/>
<path d="M18.5013 3.71875C14.5761 3.71875 14.0834 3.73455 12.5418 3.79897C11.0032 3.86378 9.95286 4.08757 9.03393 4.41602C8.0832 4.75522 7.27686 5.20904 6.47355 5.94748C5.66953 6.68578 5.17566 7.42674 4.80538 8.29998C4.44694 9.14467 4.20311 10.1102 4.13388 11.5235C4.06494 12.9402 4.04688 13.3931 4.04688 17.0001C4.04688 20.6072 4.06422 21.0585 4.13417 22.4751C4.20499 23.889 4.44853 24.8541 4.80566 25.6986C5.17509 26.5722 5.66895 27.3132 6.47254 28.0513C7.2757 28.7902 8.08204 29.245 9.03205 29.5842C9.9517 29.9127 11.0022 30.1365 12.5405 30.2013C14.0823 30.2657 14.5745 30.2815 18.4996 30.2815C22.4252 30.2815 22.9163 30.2657 24.4579 30.2013C25.9965 30.1365 27.048 29.9127 27.9677 29.5842C28.918 29.245 29.7231 28.7902 30.5262 28.0513C31.3302 27.3132 31.8239 26.5722 32.1943 25.699C32.5496 24.8541 32.7936 23.8887 32.8658 22.4753C32.9351 21.0588 32.9531 20.6072 32.9531 17.0001C32.9531 13.3931 32.9351 12.9405 32.8658 11.5237C32.7936 10.1098 32.5496 9.1448 32.1943 8.30038C31.8239 7.42674 31.3302 6.68578 30.5262 5.94748C29.7223 5.20877 28.9182 4.75495 27.9668 4.41615C27.0454 4.08757 25.9945 3.86365 24.4558 3.79897C22.9141 3.73455 22.4233 3.71875 18.4968 3.71875H18.5013ZM17.2047 6.11216C17.5896 6.11163 18.019 6.11216 18.5013 6.11216C22.3604 6.11216 22.8177 6.12491 24.3417 6.18853C25.7508 6.24777 26.5157 6.46412 27.0252 6.64594C27.6997 6.88659 28.1806 7.1744 28.6861 7.63937C29.192 8.10422 29.505 8.54688 29.7677 9.16672C29.9655 9.63422 30.2013 10.3371 30.2654 11.632C30.3347 13.0321 30.3497 13.4526 30.3497 16.9971C30.3497 20.5416 30.3347 20.9622 30.2654 22.3622C30.201 23.6571 29.9655 24.3599 29.7677 24.8276C29.5058 25.4474 29.192 25.8887 28.6861 26.3533C28.1803 26.8182 27.7 27.1058 27.0252 27.3466C26.5163 27.5292 25.7508 27.7451 24.3417 27.8043C22.818 27.8679 22.3604 27.8817 18.5013 27.8817C14.642 27.8817 14.1846 27.8679 12.6611 27.8043C11.2519 27.7445 10.487 27.5282 9.97714 27.3464C9.30275 27.1056 8.82089 26.8179 8.31503 26.3531C7.80917 25.8882 7.49611 25.4466 7.2335 24.8265C7.03564 24.3589 6.79991 23.656 6.73573 22.3611C6.6665 20.961 6.65263 20.5405 6.65263 16.9938C6.65263 13.447 6.6665 13.0288 6.73573 11.6287C6.8002 10.3337 7.03564 9.6309 7.2335 9.16273C7.49554 8.5429 7.80917 8.10023 8.31517 7.63539C8.82118 7.17055 9.30275 6.88274 9.97728 6.64155C10.4868 6.45894 11.2519 6.24312 12.6611 6.18362C13.9944 6.12823 14.5111 6.11163 17.2047 6.10884V6.11216ZM26.2164 8.31738C25.2589 8.31738 24.482 9.03059 24.482 9.9106C24.482 10.7905 25.2589 11.5044 26.2164 11.5044C27.1739 11.5044 27.9508 10.7905 27.9508 9.9106C27.9508 9.03072 27.1739 8.31685 26.2164 8.31685V8.31738ZM18.5013 10.1795C14.4024 10.1795 11.079 13.2334 11.079 17.0001C11.079 20.7668 14.4024 23.8193 18.5013 23.8193C22.6004 23.8193 25.9225 20.7668 25.9225 17.0001C25.9225 13.2336 22.6001 10.1795 18.501 10.1795H18.5013ZM18.5013 12.573C21.162 12.573 23.3191 14.5549 23.3191 17.0001C23.3191 19.4451 21.162 21.4273 18.5013 21.4273C15.8406 21.4273 13.6836 19.4451 13.6836 17.0001C13.6836 14.5549 15.8405 12.573 18.5013 12.573Z" fill="white"/>
<defs>
<radialGradient id="paint0_radial_268_35" cx="0" cy="0" r="1" gradientUnits="userSpaceOnUse" gradientTransform="translate(9.82812 36.6187) rotate(-90) scale(33.6965 34.1058)">
<stop stop-color="#FFDD55"/>
<stop offset="0.1" stop-color="#FFDD55"/>
<stop offset="0.5" stop-color="#FF543E"/>
<stop offset="1" stop-color="#C837AB"/>
</radialGradient>
<radialGradient id="paint1_radial_268_35" cx="0" cy="0" r="1" gradientUnits="userSpaceOnUse" gradientTransform="translate(-6.19764 2.4492) rotate(77.7114) scale(15.1159 67.3281)">
<stop stop-color="#3771C8"/>
<stop offset="0.128" stop-color="#3771C8"/>
<stop offset="1" stop-color="#6600FF" stop-opacity="0"/>
</radialGradient>
</defs>
</svg>
