<svg width="471" height="192" viewBox="0 0 471 192" fill="none" xmlns="http://www.w3.org/2000/svg">
<path fill-rule="evenodd" clip-rule="evenodd" d="M110.919 88.6361L56.4498 0L0 88.6361H53.974V76.2568L47.0415 80.2182H16.3407L52.9836 20.7973L50.5077 15.3504C50.8379 13.3697 52.3894 10.8938 55.9546 16.8359L58.9257 12.8745C60.0811 12.8745 62.2929 13.3697 61.8967 15.3504L58.9257 20.7973L96.0637 80.2182H64.3726L57.9353 76.2568V88.6361H110.919Z" fill="white"/>
<path d="M23.2734 76.7511L54.9646 24.7578L88.6364 77.7414H65.3632L57.4404 71.7993V64.8669L63.8777 69.3235H68.8294V66.3524H64.868L58.4308 60.9055V54.4682L64.868 58.4296H68.8294V54.9634H64.3729L57.4404 49.0213V38.1275H53.479V49.0213L46.5466 54.4682H41.5949V58.4296H46.5466L53.479 54.4682V60.9055L47.0418 64.8669H41.5949V69.3235H47.0418L53.479 64.8669V71.7993L47.0418 76.7511H23.2734Z" fill="white"/>
<path d="M1.46484 168V133.82H8.30078V168H1.46484ZM10.9863 168V161.994H11.2305C13.1836 161.994 14.4857 161.18 15.1367 159.553C15.3646 159.032 15.4785 158.495 15.4785 157.941C15.4785 156.314 14.8275 155.142 13.5254 154.426C12.8743 154.068 12.1582 153.889 11.377 153.889H10.9863V147.932H11.377C13.1999 147.932 14.4531 147.15 15.1367 145.588C15.3646 145.035 15.4785 144.465 15.4785 143.879C15.4785 142.284 14.8112 141.112 13.4766 140.363C12.793 140.005 12.0443 139.826 11.2305 139.826H10.9863V133.82H12.1582C16.39 133.82 19.3685 135.367 21.0938 138.459C21.9076 139.956 22.3145 141.6 22.3145 143.391C22.3145 146.223 21.4518 148.518 19.7266 150.275C19.4661 150.503 19.222 150.715 18.9941 150.91C20.8822 152.31 21.9727 154.442 22.2656 157.307C22.2982 157.697 22.3145 158.072 22.3145 158.43C22.3145 161.587 21.2077 164.061 18.9941 165.852C17.1712 167.284 14.8926 168 12.1582 168H10.9863ZM25.6836 160.432V147.639C25.7161 146.044 26.4486 144.481 27.8809 142.951C29.6387 141.128 31.7871 140.201 34.3262 140.168V146.32C33.3822 146.32 32.7311 146.727 32.373 147.541C32.2754 147.736 32.2266 147.915 32.2266 148.078V150.52H39.502V148.127C39.4694 146.923 38.623 146.32 36.9629 146.32V140.168C39.3392 140.168 41.4225 140.982 43.2129 142.609C44.7754 144.042 45.5729 145.702 45.6055 147.59V156.818H32.2266V160.432C32.4544 161.376 33.1706 161.896 34.375 161.994V168C31.3151 168 28.89 166.747 27.0996 164.24C26.1556 162.906 25.6836 161.636 25.6836 160.432ZM36.9629 168V162.043C38.7207 162.01 39.8438 161.18 40.332 159.553L45.6543 161.555C45.166 163.638 43.929 165.314 41.9434 166.584C40.4134 167.528 38.7533 168 36.9629 168ZM49.3652 168V147.736C49.3652 146.109 50.0977 144.514 51.5625 142.951C53.3529 141.096 55.5827 140.152 58.252 140.119V146.613C56.8848 146.776 56.1361 147.411 56.0059 148.518V168H49.3652ZM60.498 146.613V140.119C63.6556 140.119 66.1458 141.372 67.9688 143.879C68.9453 145.246 69.4336 146.532 69.4336 147.736V168H62.793V148.518C62.793 147.443 62.1908 146.825 60.9863 146.662C60.8236 146.63 60.6608 146.613 60.498 146.613ZM73.9258 141.633H80.4688V170.051C80.4688 171.646 79.8014 173.225 78.4668 174.787C76.8066 176.708 74.7559 177.684 72.3145 177.717H69.2383L70.7031 171.467H72.1191C72.3145 171.467 72.4772 171.434 72.6074 171.369C72.7702 171.337 72.9004 171.288 72.998 171.223C73.1283 171.158 73.2422 171.092 73.3398 171.027C73.4375 170.962 73.5189 170.881 73.584 170.783C73.6491 170.686 73.6979 170.588 73.7305 170.49C73.7956 170.425 73.8281 170.36 73.8281 170.295C73.8607 170.23 73.8932 170.181 73.9258 170.148V170.051V141.633ZM73.584 136.213C73.584 134.878 74.1862 133.869 75.3906 133.186C75.944 132.86 76.5299 132.697 77.1484 132.697C78.5156 132.697 79.541 133.299 80.2246 134.504C80.5176 135.057 80.6641 135.627 80.6641 136.213C80.6641 137.58 80.0618 138.605 78.8574 139.289C78.304 139.582 77.7344 139.729 77.1484 139.729C75.7487 139.729 74.707 139.11 74.0234 137.873C73.7305 137.352 73.584 136.799 73.584 136.213ZM84.9609 160.432V147.688C84.9609 146.092 85.6608 144.53 87.0605 143C88.8184 141.145 91.0482 140.201 93.75 140.168V146.516C92.2852 146.646 91.5039 147.264 91.4062 148.371V159.748C91.4714 161.018 92.2526 161.669 93.75 161.701V168.049C90.5599 168.049 88.0859 166.763 86.3281 164.191C85.4167 162.857 84.9609 161.604 84.9609 160.432ZM95.9961 168.049V161.701C97.3633 161.538 98.112 160.92 98.2422 159.846L98.1934 148.371C97.9655 147.199 97.2168 146.581 95.9473 146.516V140.168C99.0072 140.168 101.4 141.405 103.125 143.879C104.036 145.214 104.492 146.483 104.492 147.688V160.432C104.492 162.059 103.792 163.654 102.393 165.217C100.7 167.072 98.5677 168.016 95.9961 168.049ZM108.398 168V140.168H115.039V143.244C116.178 141.779 117.725 140.77 119.678 140.217C120.361 140.021 121.045 139.924 121.729 139.924H123.486L121.973 146.467C119.922 146.499 118.148 147.395 116.65 149.152C115.576 150.422 115.039 151.74 115.039 153.107V168H108.398ZM137.256 168V133.82H144.141V168H137.256ZM146.777 152.424V145.686H148.389C149.788 145.686 150.602 145.067 150.83 143.83C150.863 143.635 150.879 143.423 150.879 143.195C150.684 141.6 149.854 140.738 148.389 140.607H146.777V133.82H148.584C154.671 134.048 157.764 137.108 157.861 143C157.861 147.362 156.608 150.178 154.102 151.447C152.702 152.131 150.863 152.456 148.584 152.424C148.486 152.424 147.884 152.424 146.777 152.424ZM161.035 136.213C161.035 134.878 161.637 133.869 162.842 133.186C163.395 132.86 163.981 132.697 164.6 132.697C165.967 132.697 166.992 133.299 167.676 134.504C167.969 135.057 168.115 135.627 168.115 136.213C168.115 137.58 167.513 138.605 166.309 139.289C165.755 139.582 165.186 139.729 164.6 139.729C163.2 139.729 162.158 139.11 161.475 137.873C161.182 137.352 161.035 136.799 161.035 136.213ZM161.377 168V141.633H167.92V168H161.377ZM172.412 168V147.736C172.412 146.109 173.145 144.514 174.609 142.951C176.4 141.096 178.63 140.152 181.299 140.119V146.613C179.932 146.776 179.183 147.411 179.053 148.518V168H172.412ZM183.545 146.613V140.119C186.702 140.119 189.193 141.372 191.016 143.879C191.992 145.246 192.48 146.532 192.48 147.736V168H185.84V148.518C185.84 147.443 185.238 146.825 184.033 146.662C183.87 146.63 183.708 146.613 183.545 146.613ZM196.191 160.432V147.639C196.224 146.044 196.956 144.481 198.389 142.951C200.146 141.128 202.295 140.201 204.834 140.168V146.32C203.89 146.32 203.239 146.727 202.881 147.541C202.783 147.736 202.734 147.915 202.734 148.078V150.52H210.01V148.127C209.977 146.923 209.131 146.32 207.471 146.32V140.168C209.847 140.168 211.93 140.982 213.721 142.609C215.283 144.042 216.081 145.702 216.113 147.59V156.818H202.734V160.432C202.962 161.376 203.678 161.896 204.883 161.994V168C201.823 168 199.398 166.747 197.607 164.24C196.663 162.906 196.191 161.636 196.191 160.432ZM207.471 168V162.043C209.229 162.01 210.352 161.18 210.84 159.553L216.162 161.555C215.674 163.638 214.437 165.314 212.451 166.584C210.921 167.528 209.261 168 207.471 168ZM231.104 159.162V142.707C231.104 140.819 231.803 138.98 233.203 137.189C235.059 134.813 237.565 133.609 240.723 133.576V140.461C239.355 140.493 238.477 141.128 238.086 142.365C238.021 142.495 237.988 142.609 237.988 142.707V159.162C237.988 159.683 238.265 160.188 238.818 160.676C239.339 161.132 239.974 161.359 240.723 161.359V168.244C237.077 168.244 234.326 166.714 232.471 163.654C231.559 162.092 231.104 160.594 231.104 159.162ZM243.359 168.244V161.359C243.359 161.359 243.734 161.213 244.482 160.92C244.938 160.594 245.247 160.253 245.41 159.895C245.573 159.471 245.654 158.869 245.654 158.088V157.502L252.393 159.113C252.393 161.945 251.253 164.289 248.975 166.145C247.249 167.544 245.378 168.244 243.359 168.244ZM243.359 140.461V133.576C245.736 133.576 247.884 134.618 249.805 136.701C251.53 138.589 252.393 140.624 252.393 142.805L245.654 144.562V143.83C245.654 143.016 245.573 142.414 245.41 142.023C245.28 141.698 245.036 141.405 244.678 141.145C244.352 140.884 244.059 140.705 243.799 140.607L243.359 140.461ZM254.59 161.555V159.064C254.622 156.981 255.501 155.37 257.227 154.23C257.65 154.003 259.359 153.368 262.354 152.326C265.837 151.154 267.578 150.113 267.578 149.201V148.078C267.546 146.906 266.829 146.271 265.43 146.174V140.168C267.871 140.168 269.922 140.998 271.582 142.658C273.079 144.188 273.828 145.848 273.828 147.639V160.383C273.861 161.359 274.316 161.88 275.195 161.945V168C273.21 168 271.615 167.479 270.41 166.438C269.141 167.447 267.497 167.967 265.479 168V161.994C265.739 161.994 265.983 161.962 266.211 161.896C267.122 161.636 267.578 161.018 267.578 160.041V156.037C266.699 156.558 264.99 157.176 262.451 157.893C261.41 158.153 260.807 158.332 260.645 158.43C260.254 158.625 260.042 158.999 260.01 159.553V160.236C260.01 160.432 260.026 160.627 260.059 160.822C260.254 161.604 261.182 161.994 262.842 161.994V168C260.661 168 258.805 167.447 257.275 166.34C255.485 165.038 254.59 163.443 254.59 161.555ZM254.932 147.15C254.964 145.49 255.648 143.977 256.982 142.609C258.675 140.982 260.645 140.168 262.891 140.168V146.174C261.393 146.206 260.628 147.248 260.596 149.299L254.932 147.15ZM278.271 168V147.736C278.271 146.109 278.988 144.53 280.42 143C282.243 141.112 284.473 140.152 287.109 140.119V146.613C285.807 146.809 285.075 147.46 284.912 148.566V168H278.271ZM289.355 146.613V140.119C291.569 140.152 293.457 140.754 295.02 141.926C296.517 140.721 298.389 140.119 300.635 140.119V146.613C299.137 146.646 298.372 147.297 298.34 148.566V168H291.699V148.566C291.634 147.297 290.853 146.646 289.355 146.613ZM302.832 146.613V140.119C305.99 140.119 308.48 141.372 310.303 143.879C311.279 145.246 311.768 146.532 311.768 147.736V168H305.127V148.566C305.062 147.297 304.297 146.646 302.832 146.613ZM324.854 168V161.652H326.514C327.588 161.587 328.239 161.148 328.467 160.334V147.834C328.467 147.411 328.206 147.053 327.686 146.76C327.327 146.597 326.937 146.516 326.514 146.516H324.854V140.168H326.514C329.574 140.168 331.95 141.47 333.643 144.074C334.489 145.409 334.912 146.63 334.912 147.736V160.432C334.912 161.929 334.261 163.459 332.959 165.021C331.234 166.975 329.085 167.967 326.514 168H324.854ZM315.527 177.717V140.168H322.412V177.717H315.527ZM338.086 177.277L339.6 171.271H349.268C350.309 171.239 350.977 170.767 351.27 169.855C351.302 169.79 351.318 169.742 351.318 169.709V167.414C350.635 167.544 349.902 167.609 349.121 167.609V161.555C350.521 161.49 351.253 160.952 351.318 159.943V147.492C351.318 147.036 351.025 146.63 350.439 146.271C350.049 146.044 349.609 145.93 349.121 145.93V139.826C349.902 139.826 350.635 139.924 351.318 140.119V139.826H357.568V169.709C357.568 171.141 356.934 172.622 355.664 174.152C353.971 176.203 351.872 177.245 349.365 177.277H338.086ZM338.574 160.09V147.248C338.607 145.686 339.307 144.156 340.674 142.658C342.367 140.803 344.482 139.859 347.021 139.826V145.93C345.85 145.93 345.101 146.353 344.775 147.199C344.743 147.297 344.727 147.362 344.727 147.395V160.041C344.727 160.79 345.199 161.262 346.143 161.457C346.403 161.522 346.696 161.555 347.021 161.555V167.609C343.962 167.609 341.585 166.324 339.893 163.752C339.014 162.45 338.574 161.229 338.574 160.09ZM361.426 168V140.168H368.066V143.244C369.206 141.779 370.752 140.77 372.705 140.217C373.389 140.021 374.072 139.924 374.756 139.924H376.514L375 146.467C372.949 146.499 371.175 147.395 369.678 149.152C368.604 150.422 368.066 151.74 368.066 153.107V168H361.426ZM378.857 160.432V147.688C378.857 146.092 379.557 144.53 380.957 143C382.715 141.145 384.945 140.201 387.646 140.168V146.516C386.182 146.646 385.4 147.264 385.303 148.371V159.748C385.368 161.018 386.149 161.669 387.646 161.701V168.049C384.456 168.049 381.982 166.763 380.225 164.191C379.313 162.857 378.857 161.604 378.857 160.432ZM389.893 168.049V161.701C391.26 161.538 392.008 160.92 392.139 159.846L392.09 148.371C391.862 147.199 391.113 146.581 389.844 146.516V140.168C392.904 140.168 395.296 141.405 397.021 143.879C397.933 145.214 398.389 146.483 398.389 147.688V160.432C398.389 162.059 397.689 163.654 396.289 165.217C394.596 167.072 392.464 168.016 389.893 168.049ZM402.1 160.627V140.168H408.74V159.846C408.805 161.083 409.554 161.717 410.986 161.75V168.244C407.796 168.244 405.306 166.991 403.516 164.484C402.572 163.15 402.1 161.864 402.1 160.627ZM413.232 168.244V161.75C414.632 161.587 415.397 160.952 415.527 159.846V140.168H422.168V160.627C422.168 162.157 421.452 163.703 420.02 165.266C418.197 167.219 415.934 168.212 413.232 168.244ZM425.879 168V147.736C425.879 146.109 426.611 144.514 428.076 142.951C429.867 141.096 432.096 140.152 434.766 140.119V146.613C433.398 146.776 432.65 147.411 432.52 148.518V168H425.879ZM437.012 146.613V140.119C440.169 140.119 442.66 141.372 444.482 143.879C445.459 145.246 445.947 146.532 445.947 147.736V168H439.307V148.518C439.307 147.443 438.704 146.825 437.5 146.662C437.337 146.63 437.174 146.613 437.012 146.613ZM449.268 160.432V147.736C449.3 146.206 449.967 144.676 451.27 143.146C452.897 141.291 454.915 140.347 457.324 140.314H458.936V146.613H457.324C456.38 146.711 455.811 147.167 455.615 147.98V160.334C455.615 160.692 455.843 161.034 456.299 161.359C456.624 161.555 456.999 161.652 457.422 161.652H458.936V168H457.422C454.46 168 452.148 166.682 450.488 164.045C449.674 162.743 449.268 161.538 449.268 160.432ZM461.523 168V133.039H468.311L468.262 168H461.523Z" fill="white"/>
</svg>
