<svg width="43" height="43" viewBox="0 0 43 43" fill="none" xmlns="http://www.w3.org/2000/svg">
<circle cx="21.5" cy="21.5" r="21.5" fill="#4CAF50"/>
<path d="M30.0545 29.9996H29.3986C28.7027 29.9996 28.0353 29.7232 27.5433 29.2311C27.0512 28.7391 26.7748 28.0717 26.7748 27.3758C26.7748 28.0717 26.4984 28.7391 26.0063 29.2311C25.5143 29.7232 24.8469 29.9996 24.151 29.9996C23.4552 29.9996 22.7878 29.7232 22.2957 29.2311C21.8037 28.7391 21.5273 28.0717 21.5273 27.3758C21.5273 28.0717 21.2508 28.7391 20.7588 29.2311C20.2667 29.7232 19.5994 29.9996 18.9035 29.9996C18.2076 29.9996 17.5403 29.7232 17.0482 29.2311C16.5561 28.7391 16.2797 28.0717 16.2797 27.3758C16.2797 28.0717 16.0033 28.7391 15.5112 29.2311C15.0192 29.7232 14.3518 29.9996 13.6559 29.9996H13M25.4629 24.7521C24.7873 23.9306 23.938 23.269 22.9763 22.8148C22.0146 22.3606 20.9641 22.125 19.9005 22.125C18.8369 22.125 17.7865 22.3606 16.8247 22.8148C15.863 23.269 15.0138 23.9306 14.3381 24.7521" stroke="white" stroke-width="2" stroke-linecap="round" stroke-linejoin="round"/>
<path d="M20.8712 22.1945C20.9499 19.2296 21.8551 16.5272 23.8229 15.5564M19.9004 13.0638C20.7508 12.8963 21.633 13.0615 22.3653 13.5252C23.0975 13.989 23.6239 14.716 23.836 15.5564" stroke="white" stroke-width="2" stroke-linecap="round" stroke-linejoin="round"/>
<path d="M28.6238 16.043C28.02 15.391 27.1989 14.9819 26.3148 14.8925C25.4307 14.8031 24.5443 15.0396 23.8223 15.5576" stroke="white" stroke-width="2" stroke-linecap="round" stroke-linejoin="round"/>
<path d="M19.0088 16.9607C19.5229 16.2033 20.2848 15.6489 21.1636 15.3927C22.0423 15.1365 22.9829 15.1946 23.8234 15.557C24.6665 15.7632 25.3965 16.289 25.8591 17.0233C26.3218 17.7577 26.4809 18.6431 26.3029 19.4926" stroke="white" stroke-width="2" stroke-linecap="round" stroke-linejoin="round"/>
</svg>
