<svg width="43" height="43" viewBox="0 0 43 43" fill="none" xmlns="http://www.w3.org/2000/svg">
<circle cx="21.5" cy="21.5" r="21.5" fill="#4CAF50"/>
<path d="M27.6 23.25C28.2365 23.25 28.847 23.5266 29.2971 24.0188C29.7471 24.5111 30 25.1788 30 25.875V26.5006C30 29.6305 26.632 32 22 32C17.368 32 14 29.7539 14 26.5006V25.875C14 25.1788 14.2529 24.5111 14.7029 24.0188C15.153 23.5266 15.7635 23.25 16.4 23.25H27.6ZM22 11C22.6303 11 23.2545 11.1358 23.8369 11.3996C24.4192 11.6635 24.9484 12.0502 25.3941 12.5377C25.8398 13.0252 26.1934 13.604 26.4346 14.2409C26.6758 14.8779 26.8 15.5606 26.8 16.25C26.8 16.9394 26.6758 17.6221 26.4346 18.2591C26.1934 18.896 25.8398 19.4748 25.3941 19.9623C24.9484 20.4498 24.4192 20.8365 23.8369 21.1004C23.2545 21.3642 22.6303 21.5 22 21.5C20.727 21.5 19.5061 20.9469 18.6059 19.9623C17.7057 18.9777 17.2 17.6424 17.2 16.25C17.2 14.8576 17.7057 13.5223 18.6059 12.5377C19.5061 11.5531 20.727 11 22 11Z" fill="white"/>
</svg>
