<svg width="43" height="43" viewBox="0 0 43 43" fill="none" xmlns="http://www.w3.org/2000/svg">
<circle cx="21.5" cy="21.5" r="21.5" fill="#4CAF50"/>
<path d="M22.1724 13L11 24.1724L17.8276 31L29 19.8276V13H22.1724ZM25.2759 17.9655C25.0303 17.9655 24.7903 17.8927 24.5862 17.7563C24.382 17.6199 24.2229 17.426 24.129 17.1992C24.035 16.9724 24.0104 16.7228 24.0583 16.482C24.1062 16.2412 24.2245 16.02 24.3981 15.8464C24.5717 15.6727 24.7929 15.5545 25.0337 15.5066C25.2745 15.4587 25.5241 15.4833 25.7509 15.5773C25.9777 15.6712 26.1716 15.8303 26.308 16.0345C26.4444 16.2386 26.5172 16.4786 26.5172 16.7241C26.5172 17.0534 26.3865 17.3691 26.1536 17.6019C25.9208 17.8347 25.6051 17.9655 25.2759 17.9655Z" fill="white"/>
</svg>
