<svg width="43" height="43" viewBox="0 0 43 43" fill="none" xmlns="http://www.w3.org/2000/svg">
<circle cx="21.5" cy="21.5" r="21.5" fill="#4CAF50"/>
<path fill-rule="evenodd" clip-rule="evenodd" d="M30.3673 21.5007L30.9335 21.2048V21.202L30.9294 21.1977L30.9212 21.1807L30.8925 21.1238L30.7834 20.9189C30.6502 20.6794 30.5087 20.445 30.3591 20.2162C29.8599 19.4523 29.2861 18.7444 28.6469 18.1038C27.1107 16.5676 24.7464 15 21.4993 15C18.255 15 15.8893 16.5661 14.3531 18.1038C13.7139 18.7444 13.1401 19.4523 12.6409 20.2162C12.4384 20.5278 12.2508 20.8497 12.0788 21.1807L12.0706 21.1977L12.0679 21.202V21.2034C12.0679 21.2034 12.0665 21.2048 12.6327 21.5007L12.0665 21.2034C12.0228 21.2956 12 21.3971 12 21.5C12 21.6029 12.0228 21.7044 12.0665 21.7966L12.0652 21.7994L12.0693 21.8037L12.0775 21.8208C12.12 21.9096 12.1655 21.9969 12.2139 22.0825C12.8014 23.1172 13.52 24.0646 14.3504 24.899C15.888 26.4353 18.2523 28 21.4993 28C24.745 28 27.1107 26.4353 28.6482 24.8976C29.2863 24.2563 29.8596 23.5485 30.3591 22.7852C30.5504 22.4915 30.7284 22.1887 30.8925 21.8777L30.9212 21.8208L30.9294 21.8037L30.9321 21.7994V21.798C30.9321 21.798 30.9335 21.7966 30.3673 21.5007ZM30.3673 21.5007L30.9335 21.798C30.9772 21.7058 31 21.6043 31 21.5014C31 21.3985 30.9772 21.297 30.9335 21.2048L30.3673 21.5007ZM21.4175 19.3158C20.8617 19.3158 20.3287 19.546 19.9357 19.9557C19.5427 20.3655 19.3219 20.9212 19.3219 21.5007C19.3219 22.0802 19.5427 22.6359 19.9357 23.0457C20.3287 23.4554 20.8617 23.6856 21.4175 23.6856C21.9732 23.6856 22.5063 23.4554 22.8992 23.0457C23.2922 22.6359 23.513 22.0802 23.513 21.5007C23.513 20.9212 23.2922 20.3655 22.8992 19.9557C22.5063 19.546 21.9732 19.3158 21.4175 19.3158ZM18.0586 21.5007C18.0586 20.5711 18.4127 19.6796 19.0432 19.0223C19.6736 18.365 20.5286 17.9957 21.4202 17.9957C22.3117 17.9957 23.1668 18.365 23.7972 19.0223C24.4277 19.6796 24.7818 20.5711 24.7818 21.5007C24.7818 22.4303 24.4277 23.3218 23.7972 23.9791C23.1668 24.6364 22.3117 25.0057 21.4202 25.0057C20.5286 25.0057 19.6736 24.6364 19.0432 23.9791C18.4127 23.3218 18.0586 22.4303 18.0586 21.5007Z" fill="white"/>
</svg>
